HIERARCHY
ROOT hip
{
	OFFSET 0.000000 0.000000 0.000000 
	CHANNELS 6 Xposition Yposition Zposition Xrotation Zrotation Yrotation
	JOINT abdomen
	{
		OFFSET 0.000000 3.402643 0.000000 
		CHANNELS 3 Xrotation Zrotation Yrotation
		JOINT chest
		{
			OFFSET 0.000000 8.438565 -0.680529 
			CHANNELS 3 Xrotation Zrotation Yrotation
			JOINT neck
			{
				OFFSET 0.000000 10.207942 -0.272212 
				CHANNELS 3 Xrotation Zrotation Yrotation
				JOINT head
				{
					OFFSET 0.000000 3.130431 0.000000 
					CHANNELS 3 Xrotation Zrotation Yrotation
					End Site
					{
						OFFSET 0.000000 3.130435 0.000000 
					}
				}
			}
			JOINT lCollar
			{
				OFFSET 3.470700 6.669187 -0.816635 
				CHANNELS 3 Yrotation Zrotation Xrotation
				JOINT lShldr
				{
					OFFSET 3.198488 0.000000 0.000000 
					CHANNELS 3 Zrotation Yrotation Xrotation
					JOINT lForeArm
					{
						OFFSET 10.139888 0.000000 0.000000 
						CHANNELS 3 Yrotation Zrotation Xrotation
						JOINT lHand
						{
							OFFSET 8.370511 0.000000 0.000000 
							CHANNELS 3 Zrotation Yrotation Xrotation
							End Site
							{
								OFFSET 4.083176 0.000000 0.000000 
							}
						}
					}
				}
			}
			JOINT rCollar
			{
				OFFSET -3.470700 6.669187 -0.816635 
				CHANNELS 3 Yrotation Zrotation Xrotation
				JOINT rShldr
				{
					OFFSET -3.198488 0.000000 0.000000 
					CHANNELS 3 Zrotation Yrotation Xrotation
					JOINT rForeArm
					{
						OFFSET -10.139888 0.000000 0.000000 
						CHANNELS 3 Yrotation Zrotation Xrotation
						JOINT rHand
						{
							OFFSET -8.370511 0.000000 0.000000 
							CHANNELS 3 Zrotation Yrotation Xrotation
							End Site
							{
								OFFSET -4.083176 0.000000 0.000000 
							}
						}
					}
				}
			}
		}
	}
	JOINT lThigh
	{
		OFFSET 5.308129 -1.633274 1.361059 
		CHANNELS 3 Xrotation Zrotation Yrotation
		JOINT lShin
		{
			OFFSET -2.041588 -20.007561 0.000000 
			CHANNELS 3 Xrotation Zrotation Yrotation
			JOINT lFoot
			{
				OFFSET 0.000000 -19.190928 -1.224953 
				CHANNELS 3 Xrotation Yrotation Zrotation
				End Site
				{
					OFFSET 0.000000 -2.449906 4.627600 
				}
			}
		}
	}
	JOINT rThigh
	{
		OFFSET -5.308129 -1.633274 1.361059 
		CHANNELS 3 Xrotation Zrotation Yrotation
		JOINT rShin
		{
			OFFSET 2.041588 -20.007561 0.000000 
			CHANNELS 3 Xrotation Zrotation Yrotation
			JOINT rFoot
			{
				OFFSET 0.000000 -19.190928 -1.224953 
				CHANNELS 3 Xrotation Yrotation Zrotation
				End Site
				{
					OFFSET 0.000000 -2.449906 4.627600 
				}
			}
		}
	}
}
MOTION
Frames: 6
Frame Time: 0.016667
0.000000 45.898392 -4.086062 -23.481567 -3.308778 9.967669 38.432823 -0.361298 0.742173 33.961372 -3.691383 0.205281 26.622019 -2.705078 -0.019970 -53.030773 3.250931 -1.437667 1.422032 28.742895 2.079243 -87.133995 -21.540174 -37.683002 -138.134094 -15.625691 34.608017 -68.566818 -12.731286 -33.891029 3.278210 -24.742138 3.483777 70.428879 33.508934 -35.585102 122.448067 16.409388 1.128973 56.668598 -61.442177 -51.967014 -70.200714 9.706089 9.106045 98.839455 -9.406087 -14.131281 35.129333 4.390186 16.029516 -10.764524 3.365986 -1.128679 76.829582 6.007644 8.063903 -2.781514 -10.164807 -2.557638 
0.000000 45.873428 -4.207629 -23.823181 -3.364862 10.124779 38.483238 -0.283186 0.624992 33.908375 -3.642537 0.273506 26.575508 -2.714842 -0.068745 -53.021564 3.250917 -1.447417 1.467425 29.215963 2.154008 -88.845222 -20.694996 -38.739094 -139.006699 -15.849980 38.974003 -68.536613 -12.730521 -33.883064 3.346288 -24.298115 3.471374 70.566864 33.495628 -36.453167 123.101418 16.491169 0.810429 56.835209 -61.613838 -51.895584 -65.842514 8.738434 8.153115 91.332314 -9.385275 -12.861032 33.009609 9.827476 21.854242 -8.388720 3.612713 -0.989730 75.938965 6.526248 8.430563 -18.264833 -12.676415 -2.076324 
0.000000 45.907211 -4.043121 -23.330397 -3.307882 10.055972 38.415932 -0.234366 0.498043 33.961002 -3.701098 0.361835 26.557514 -2.802730 -0.098017 -53.018009 3.338677 -1.516221 1.524018 29.215639 2.097077 -89.329964 -20.112720 -39.316551 -139.485245 -15.935731 40.952499 -68.473328 -12.717362 -33.844433 3.560333 -24.070681 3.475710 70.843658 33.580883 -36.812920 123.858841 16.649281 0.362061 57.166527 -61.873817 -51.751049 -60.783806 7.781632 7.574322 82.682365 -8.982971 -11.372702 33.798809 11.438219 23.703987 -5.727909 3.824291 -0.713484 74.240936 6.809013 8.367734 -27.687105 -12.403431 -2.342232 
0.000000 45.941013 -3.878534 -22.839447 -3.260492 9.986612 38.358109 -0.195308 0.371092 34.023140 -3.769415 0.450173 26.529871 -2.900383 -0.127285 -53.024437 3.426426 -1.584455 1.570845 29.214935 2.044924 -89.824928 -19.549795 -39.893009 -139.955200 -16.029753 42.932541 -68.407768 -12.707552 -33.796864 3.777976 -23.832792 3.488960 71.114700 33.651718 -37.179157 124.624641 16.800243 -0.088122 57.501862 -62.110607 -51.609715 -55.703262 6.865601 6.908026 74.057190 -8.386816 -9.995402 34.517746 13.089659 25.545305 -3.082570 4.027496 -0.409988 72.550240 7.101746 8.286764 -37.076015 -12.107303 -2.600882 
0.000000 46.022671 -3.480910 -21.654356 -3.109273 9.701705 38.251099 -0.185545 0.263670 34.123665 -3.886548 0.537860 26.520365 -3.017571 -0.127291 -53.052082 3.523892 -1.672766 1.591142 28.858583 1.904645 -89.404510 -19.275566 -40.072006 -140.086258 -16.044954 43.003704 -68.300705 -12.680184 -33.718624 4.030413 -23.808933 3.488237 71.472649 33.801670 -37.149277 125.450043 17.136858 -0.616366 57.995121 -62.411556 -51.387859 -50.637444 6.004306 6.143729 64.726837 -8.237814 -8.312366 37.588703 11.792233 23.963402 -0.644319 4.280556 -0.155245 71.152809 7.072850 8.099184 -40.935249 -11.327940 -3.452198 
0.000000 46.104343 -3.083230 -20.462622 -2.967350 9.416850 38.153870 -0.166015 0.146484 34.234280 -4.003675 0.616460 26.511395 -3.134757 -0.137048 -53.079716 3.631119 -1.751340 1.609461 28.502281 1.764440 -88.985992 -18.999834 -40.249504 -140.213730 -16.061468 43.061405 -68.192726 -12.662171 -33.643932 4.286465 -23.774601 3.496368 71.832657 33.942921 -37.111012 126.277313 17.463938 -1.148345 58.491028 -62.701080 -51.171848 -45.571594 5.204172 5.313316 55.431755 -7.806592 -6.690340 40.644920 10.426313 22.452023 1.793867 4.523884 0.128876 69.736549 7.054668 7.881904 -44.752907 -10.485712 -4.248613 
